<svg width="538" height="381" viewBox="0 0 538 381" fill="none" xmlns="http://www.w3.org/2000/svg">
<path d="M76.0261 341.283C177.4 394.239 341.748 394.239 443.11 341.283C544.472 288.328 544.484 202.464 443.11 149.508C341.735 96.5529 177.388 96.5529 76.0261 149.508C-25.336 202.464 -25.3481 288.328 76.0261 341.283Z" fill="#FAFAFA"/>
<path d="M319.341 269.587C295.494 283.343 295.494 305.665 319.341 319.433C343.187 333.201 381.83 333.201 405.676 319.433C429.523 305.665 429.511 283.343 405.676 269.587C381.842 255.831 343.175 255.819 319.341 269.587Z" fill="#EBEBEB"/>
<path d="M68.2705 72.259L132.151 52.3931L83.0066 86.4385L68.2705 72.259Z" fill="#407BFF"/>
<path d="M132.152 52.3931L63.3469 63.7416L48.6108 49.5499L132.152 52.3931Z" fill="#407BFF"/>
<path d="M63.3472 63.7416V80.7643L68.2713 72.259L132.152 52.3931L63.3472 63.7416Z" fill="#455A64"/>
<path d="M63.3472 80.7642L73.1833 76.9895L68.2713 72.2589L63.3472 80.7642Z" fill="#407BFF"/>
<path d="M68.2705 72.2589L73.1825 76.9895L71.6097 77.5823L68.2705 72.2589Z" fill="#455A64"/>
<path d="M52.7608 78.1994C52.5574 78.2032 52.3586 78.1385 52.1963 78.0157C52.0341 77.893 51.9178 77.7192 51.8661 77.5224C51.8145 77.3256 51.8305 77.1172 51.9116 76.9306C51.9926 76.744 52.1341 76.59 52.3131 76.4935C53.402 75.8885 54.503 75.2836 55.5918 74.8117C55.6998 74.7533 55.8185 74.7174 55.9408 74.7062C56.063 74.695 56.1863 74.7087 56.3031 74.7466C56.4199 74.7844 56.5278 74.8455 56.6203 74.9262C56.7128 75.0069 56.7879 75.1056 56.8412 75.2162C56.8944 75.3268 56.9247 75.4471 56.9301 75.5697C56.9355 75.6924 56.916 75.8148 56.8727 75.9297C56.8295 76.0446 56.7633 76.1495 56.6783 76.2381C56.5933 76.3267 56.4913 76.3971 56.3783 76.4451C55.3257 76.9532 54.2489 77.4976 53.1963 78.0905C53.0617 78.1604 52.9125 78.1977 52.7608 78.1994Z" fill="#E0E0E0"/>
<path d="M41.5937 175.908C41.4083 175.91 41.2267 175.855 41.0734 175.75C39.1058 174.363 37.2417 172.835 35.496 171.177C35.3853 171.105 35.2917 171.01 35.2215 170.899C35.1514 170.787 35.1065 170.661 35.0898 170.53C35.0732 170.399 35.0853 170.267 35.1253 170.141C35.1653 170.015 35.2322 169.9 35.3214 169.803C35.4105 169.705 35.5198 169.629 35.6416 169.578C35.7634 169.527 35.8948 169.504 36.0265 169.509C36.1583 169.515 36.2874 169.549 36.4047 169.609C36.522 169.669 36.6248 169.754 36.7058 169.858C38.3897 171.457 40.1892 172.929 42.0897 174.262C42.2463 174.374 42.3633 174.533 42.4236 174.716C42.4839 174.899 42.4844 175.096 42.4251 175.28C42.3659 175.463 42.2498 175.622 42.0938 175.735C41.9378 175.848 41.7499 175.909 41.5574 175.908H41.5937ZM32.1084 167.1C31.9744 167.101 31.8418 167.073 31.7204 167.016C31.5989 166.96 31.4917 166.877 31.4067 166.773C29.8821 164.913 28.4952 162.943 27.2568 160.881C27.1317 160.674 27.0939 160.426 27.1517 160.191C27.2096 159.956 27.3584 159.754 27.5653 159.629C27.7723 159.504 28.0205 159.466 28.2553 159.524C28.4902 159.582 28.6924 159.731 28.8176 159.938C30.0104 161.926 31.3447 163.826 32.8101 165.624C32.9612 165.809 33.0333 166.046 33.0106 166.284C32.988 166.522 32.8724 166.741 32.6891 166.894C32.527 167.031 32.3205 167.104 32.1084 167.1ZM25.2969 156.09C25.1211 156.092 24.9487 156.042 24.8005 155.948C24.6523 155.853 24.5347 155.718 24.4621 155.558C23.4734 153.368 22.6248 151.117 21.9214 148.819C21.8697 148.595 21.9047 148.361 22.0192 148.162C22.1338 147.963 22.3193 147.815 22.5386 147.747C22.7579 147.68 22.9946 147.698 23.2011 147.798C23.4076 147.898 23.5685 148.073 23.6515 148.287C24.3203 150.509 25.1284 152.687 26.0712 154.808C26.1219 154.916 26.1505 155.034 26.1554 155.154C26.1603 155.274 26.1414 155.394 26.0998 155.506C26.0582 155.619 25.9946 155.722 25.9129 155.81C25.8311 155.897 25.7328 155.968 25.6235 156.018C25.5205 156.063 25.4095 156.088 25.2969 156.09ZM21.3648 143.737C21.155 143.736 20.9523 143.661 20.7912 143.526C20.6302 143.392 20.5208 143.206 20.4816 142.999C20.0198 140.649 19.6926 138.274 19.5016 135.885C19.4824 135.645 19.5595 135.406 19.7161 135.223C19.8726 135.039 20.0958 134.925 20.3364 134.906C20.5771 134.886 20.8155 134.963 20.9993 135.12C21.1831 135.277 21.2972 135.5 21.3164 135.74C21.4944 138.06 21.8095 140.366 22.2601 142.649C22.2847 142.766 22.2856 142.886 22.2629 143.003C22.2401 143.121 22.1941 143.232 22.1276 143.331C22.0611 143.431 21.9754 143.516 21.8755 143.581C21.7757 143.647 21.6638 143.692 21.5463 143.713L21.3648 143.737ZM20.2154 130.816C20.0958 130.816 19.9774 130.792 19.8672 130.746C19.7569 130.699 19.6571 130.631 19.5737 130.545C19.4902 130.46 19.4248 130.358 19.3812 130.247C19.3377 130.135 19.3169 130.016 19.3202 129.897C19.3484 127.502 19.51 125.111 19.8041 122.734C19.8055 122.607 19.8338 122.481 19.8871 122.365C19.9404 122.249 20.0175 122.146 20.1135 122.062C20.2094 121.978 20.3221 121.915 20.444 121.877C20.5659 121.839 20.6943 121.828 20.821 121.843C20.9476 121.859 21.0696 121.901 21.179 121.966C21.2883 122.032 21.3825 122.12 21.4556 122.225C21.5286 122.33 21.5787 122.448 21.6027 122.574C21.6266 122.699 21.6239 122.828 21.5947 122.952C21.315 125.265 21.1615 127.591 21.1349 129.921C21.1334 130.04 21.1083 130.158 21.0613 130.267C21.0142 130.377 20.946 130.476 20.8606 130.559C20.7753 130.642 20.6743 130.708 20.5636 130.752C20.4529 130.796 20.3346 130.818 20.2154 130.816ZM21.6915 117.931C21.6234 117.943 21.5539 117.943 21.4858 117.931C21.252 117.879 21.0483 117.737 20.9191 117.535C20.7899 117.333 20.7457 117.089 20.7962 116.854C21.3263 114.511 22.0052 112.203 22.8287 109.946C22.8688 109.828 22.9327 109.72 23.0164 109.628C23.1002 109.536 23.2019 109.462 23.3154 109.411C23.4289 109.36 23.5516 109.333 23.676 109.331C23.8004 109.33 23.9239 109.354 24.0386 109.402C24.1553 109.443 24.2625 109.508 24.3536 109.592C24.4447 109.676 24.5178 109.778 24.5687 109.891C24.6195 110.004 24.647 110.126 24.6495 110.25C24.652 110.373 24.6294 110.497 24.583 110.612C23.7892 112.794 23.1346 115.025 22.6231 117.29C22.5633 117.487 22.4386 117.657 22.2694 117.773C22.1002 117.89 21.8964 117.946 21.6915 117.931ZM25.9986 105.712C25.8591 105.717 25.7208 105.684 25.5993 105.615C25.4911 105.564 25.394 105.493 25.3138 105.404C25.2337 105.316 25.1721 105.212 25.1326 105.099C25.0931 104.986 25.0766 104.867 25.0841 104.748C25.0915 104.628 25.1227 104.512 25.1759 104.405C26.2319 102.249 27.4198 100.16 28.7329 98.15C28.8651 97.9626 29.0634 97.8322 29.2878 97.785C29.5123 97.7379 29.7463 97.7775 29.9427 97.8959C30.1345 98.0244 30.2692 98.2219 30.3188 98.4474C30.3684 98.6728 30.329 98.9087 30.2089 99.1058C28.9326 101.047 27.7809 103.068 26.7608 105.155C26.6982 105.31 26.5936 105.444 26.459 105.542C26.3243 105.64 26.1648 105.699 25.9986 105.712ZM32.9553 94.8229C32.7529 94.8249 32.5561 94.7565 32.3987 94.6293C32.3044 94.555 32.2258 94.4628 32.1673 94.3579C32.1089 94.2531 32.0719 94.1377 32.0584 94.0184C32.0449 93.8991 32.0552 93.7783 32.0887 93.663C32.1222 93.5478 32.1782 93.4403 32.2536 93.3468C33.7655 91.4791 35.3811 89.6978 37.093 88.0114C37.2631 87.8414 37.4938 87.746 37.7342 87.746C37.9747 87.746 38.2053 87.8414 38.3754 88.0114C38.5454 88.1815 38.6408 88.4121 38.6408 88.6526C38.6408 88.893 38.5454 89.1237 38.3754 89.2938C36.7266 90.9387 35.1677 92.6713 33.7054 94.4841C33.6117 94.5876 33.495 94.6679 33.3648 94.7183C33.2345 94.7687 33.0943 94.7879 32.9553 94.7745V94.8229ZM42.0534 85.5311C41.9215 85.5309 41.7913 85.5014 41.6721 85.445C41.5528 85.3885 41.4476 85.3064 41.3638 85.2045C41.2105 85.019 41.1361 84.7808 41.1564 84.541C41.1768 84.3013 41.2903 84.079 41.4727 83.922C43.3145 82.3904 45.2326 80.9529 47.2195 79.6149C47.4145 79.4953 47.6476 79.4538 47.8719 79.4986C48.0963 79.5435 48.2954 79.6715 48.4294 79.8569C48.5644 80.0579 48.6147 80.304 48.5694 80.5418C48.5241 80.7796 48.3869 80.99 48.1874 81.1273C46.2489 82.4289 44.3792 83.8302 42.5858 85.3255C42.4338 85.4473 42.2478 85.5192 42.0534 85.5311Z" fill="#E0E0E0"/>
<path d="M49.9171 180.638C49.7872 180.639 49.6589 180.61 49.5421 180.553C48.4169 180.045 47.3038 179.501 46.2391 178.92C46.135 178.865 46.0427 178.791 45.9676 178.7C45.8924 178.61 45.8357 178.505 45.8009 178.393C45.7661 178.281 45.7537 178.162 45.7646 178.045C45.7754 177.928 45.8092 177.814 45.8641 177.71C45.977 177.502 46.1667 177.347 46.3927 177.277C46.6187 177.207 46.8632 177.228 47.0739 177.335C48.1144 177.892 49.1912 178.424 50.2801 178.92C50.4668 179.007 50.6184 179.155 50.71 179.339C50.8016 179.524 50.8278 179.734 50.7841 179.935C50.7405 180.136 50.6297 180.317 50.4699 180.447C50.3102 180.577 50.1109 180.649 49.905 180.65L49.9171 180.638Z" fill="#E0E0E0"/>
<path d="M463.749 136.732L514.926 103.969L537.466 111.204L463.749 136.732Z" fill="#407BFF"/>
<path d="M463.749 136.732L507.981 99.8559L498.145 88.5074L463.749 136.732Z" fill="#407BFF"/>
<path d="M507.981 99.8558V108.41L463.749 136.732L507.981 99.8558Z" fill="#455A64"/>
<path d="M517.964 96.2867C517.745 96.2876 517.533 96.2055 517.372 96.0569C517.193 95.8965 517.084 95.6726 517.068 95.4329C517.052 95.1932 517.131 94.9569 517.287 94.7744C518.862 93.017 520.261 91.1082 521.461 89.076C521.583 88.8674 521.783 88.7158 522.016 88.6546C522.25 88.5933 522.499 88.6274 522.707 88.7493C522.916 88.8713 523.067 89.071 523.128 89.3047C523.19 89.5384 523.156 89.7869 523.034 89.9955C521.767 92.1258 520.3 94.1311 518.654 95.9843C518.567 96.0811 518.461 96.1582 518.342 96.2104C518.223 96.2626 518.094 96.2886 517.964 96.2867ZM524.885 85.0109C524.777 85.0281 524.666 85.0281 524.558 85.0109C524.444 84.9671 524.339 84.9005 524.251 84.8152C524.163 84.7299 524.093 84.6277 524.045 84.5146C523.998 84.4015 523.974 84.28 523.975 84.1573C523.975 84.0347 524.001 83.9135 524.05 83.801C524.905 81.5973 525.545 79.3162 525.962 76.9895C526.005 76.752 526.141 76.5415 526.339 76.4043C526.538 76.267 526.783 76.2142 527.02 76.2575C527.258 76.3008 527.468 76.4367 527.605 76.6352C527.743 76.8338 527.795 77.0787 527.752 77.3162C527.306 79.7542 526.63 82.1443 525.732 84.4543C525.663 84.6218 525.546 84.7646 525.395 84.864C525.243 84.9633 525.066 85.0145 524.885 85.0109ZM527.474 72.0291C527.355 72.0275 527.238 72.0024 527.129 71.9552C527.021 71.908 526.922 71.8396 526.84 71.754C526.758 71.6685 526.693 71.5675 526.651 71.4568C526.608 71.3462 526.588 71.2281 526.591 71.1096C526.591 70.795 526.591 70.4804 526.591 70.1659C526.585 68.1119 526.424 66.0613 526.107 64.0319C526.072 63.7931 526.132 63.5502 526.275 63.3556C526.417 63.161 526.631 63.0301 526.869 62.9914C527.107 62.9597 527.349 63.0213 527.542 63.1633C527.736 63.3054 527.868 63.5169 527.909 63.7536C528.236 65.8755 528.402 68.019 528.406 70.1659C528.406 70.4925 528.406 70.8192 528.406 71.1459C528.396 71.3855 528.293 71.6119 528.119 71.7769C527.945 71.9419 527.714 72.0324 527.474 72.0291ZM525.647 58.9142C525.452 58.9135 525.263 58.8494 525.108 58.7315C524.953 58.6136 524.841 58.4484 524.788 58.2609C524.094 55.9908 523.224 53.7781 522.187 51.6429C522.134 51.536 522.102 51.4194 522.095 51.3002C522.088 51.181 522.104 51.0615 522.144 50.9487C522.183 50.836 522.245 50.7323 522.325 50.6437C522.405 50.5552 522.502 50.4836 522.61 50.4331C522.827 50.3291 523.076 50.3152 523.303 50.3946C523.53 50.474 523.716 50.6401 523.82 50.8565C524.902 53.0753 525.804 55.3774 526.518 57.7406C526.553 57.8542 526.566 57.9737 526.554 58.092C526.543 58.2104 526.508 58.3253 526.452 58.4301C526.395 58.5348 526.319 58.6273 526.226 58.7021C526.134 58.7769 526.027 58.8326 525.913 58.8658C525.829 58.8993 525.738 58.9158 525.647 58.9142ZM520.033 46.9003C519.88 46.9017 519.73 46.8634 519.596 46.7892C519.463 46.7149 519.351 46.6073 519.271 46.4768C517.974 44.4858 516.547 42.5822 515 40.7784C514.922 40.6879 514.863 40.583 514.825 40.4695C514.788 40.356 514.773 40.2362 514.782 40.1171C514.791 39.9979 514.824 39.8817 514.878 39.7751C514.932 39.6685 515.006 39.5736 515.097 39.4959C515.186 39.4182 515.29 39.359 515.403 39.3217C515.515 39.2845 515.634 39.2699 515.752 39.2789C515.871 39.2879 515.986 39.3203 516.091 39.3742C516.197 39.428 516.291 39.5023 516.367 39.5927C517.973 41.4598 519.453 43.4323 520.795 45.4968C520.907 45.6961 520.942 45.9294 520.893 46.1524C520.844 46.3755 520.714 46.5727 520.529 46.7067C520.385 46.8132 520.213 46.8761 520.033 46.8882V46.9003ZM511.564 36.7254C511.333 36.7246 511.112 36.6334 510.947 36.4713C509.205 34.8407 507.375 33.306 505.467 31.8738C505.371 31.8023 505.291 31.7128 505.23 31.6102C505.169 31.5077 505.13 31.3942 505.113 31.2762C505.096 31.1583 505.102 31.0381 505.132 30.9227C505.162 30.8073 505.214 30.6988 505.285 30.6035C505.357 30.5081 505.446 30.4278 505.549 30.3671C505.651 30.3064 505.765 30.2665 505.883 30.2496C506.001 30.2328 506.121 30.2393 506.236 30.2689C506.352 30.2985 506.46 30.3505 506.555 30.422C508.522 31.8918 510.404 33.4712 512.193 35.1525C512.328 35.2772 512.422 35.4398 512.462 35.6188C512.502 35.7977 512.487 35.9847 512.419 36.155C512.351 36.3254 512.233 36.4711 512.08 36.5729C511.928 36.6747 511.748 36.7279 511.564 36.7254ZM500.954 28.6677C500.782 28.6661 500.614 28.6157 500.47 28.5225C499.647 28.0144 498.788 27.5062 497.917 27.0102C496.707 26.3327 495.497 25.6551 494.215 25.0139C494.098 24.967 493.992 24.8961 493.904 24.8059C493.815 24.7157 493.747 24.6081 493.703 24.49C493.659 24.3719 493.639 24.2458 493.647 24.1199C493.654 23.994 493.687 23.8709 493.745 23.7586C493.802 23.6463 493.882 23.5472 493.98 23.4676C494.078 23.3881 494.191 23.3298 494.313 23.2965C494.435 23.2632 494.562 23.2556 494.687 23.2743C494.811 23.2929 494.931 23.3374 495.038 23.4048C496.308 24.0581 497.578 24.7357 498.812 25.4374C499.708 25.9334 500.579 26.4537 501.426 26.986C501.621 27.1108 501.761 27.3057 501.818 27.5307C501.874 27.7557 501.842 27.9937 501.728 28.1958C501.65 28.3339 501.538 28.4498 501.402 28.5323C501.267 28.6149 501.112 28.6615 500.954 28.6677ZM392.49 28.0507C392.33 28.0489 392.174 28.0056 392.036 27.925C391.898 27.8444 391.783 27.7293 391.703 27.5909C391.589 27.3866 391.559 27.1455 391.62 26.9193C391.681 26.6931 391.828 26.4999 392.03 26.3811C394.135 25.1712 396.301 23.9613 398.491 22.9451C398.706 22.8402 398.954 22.8246 399.18 22.9016C399.407 22.9787 399.594 23.1421 399.701 23.3564C399.801 23.5735 399.814 23.8214 399.734 24.0473C399.655 24.2732 399.491 24.4594 399.277 24.5663C397.124 25.6188 394.994 26.744 392.925 27.9418C392.79 28.0077 392.64 28.0369 392.49 28.0265V28.0507ZM489.158 22.5216C489.032 22.5224 488.907 22.4934 488.795 22.4369C486.617 21.4811 484.367 20.5858 482.116 19.7873C481.888 19.7055 481.702 19.5365 481.599 19.3176C481.496 19.0986 481.484 18.8476 481.566 18.6198C481.648 18.392 481.817 18.206 482.036 18.1028C482.254 17.9995 482.505 17.9875 482.733 18.0693C485.02 18.892 487.307 19.7994 489.533 20.7794C489.727 20.862 489.886 21.0095 489.983 21.1968C490.08 21.384 490.109 21.5992 490.065 21.8054C490.02 22.0116 489.905 22.1959 489.74 22.3266C489.574 22.4573 489.369 22.5262 489.158 22.5216ZM404.407 22.1466C404.228 22.1478 404.053 22.0954 403.904 21.9962C403.756 21.897 403.64 21.7555 403.572 21.59C403.523 21.4791 403.496 21.3593 403.493 21.2378C403.491 21.1163 403.513 20.9955 403.558 20.8826C403.603 20.7698 403.671 20.6672 403.756 20.5809C403.842 20.4945 403.944 20.4263 404.056 20.3802C406.294 19.4365 408.593 18.5654 410.892 17.779C411.007 17.7311 411.132 17.7076 411.257 17.71C411.382 17.7124 411.505 17.7406 411.618 17.7929C411.732 17.8452 411.834 17.9203 411.917 18.0137C412 18.1071 412.063 18.2166 412.102 18.3355C412.146 18.4521 412.166 18.5764 412.161 18.701C412.156 18.8255 412.126 18.9478 412.073 19.0607C412.02 19.1735 411.945 19.2745 411.852 19.3578C411.76 19.441 411.651 19.5048 411.533 19.5454C409.271 20.3197 406.996 21.1787 404.806 22.0982C404.676 22.1343 404.54 22.1425 404.407 22.1223V22.1466ZM476.672 17.9604C476.588 17.9722 476.502 17.9722 476.418 17.9604C474.131 17.295 471.784 16.7506 469.449 16.1819C469.332 16.1565 469.222 16.1083 469.123 16.0402C469.025 15.972 468.942 15.8852 468.877 15.7846C468.812 15.6841 468.768 15.5718 468.747 15.4542C468.726 15.3365 468.728 15.2159 468.753 15.0991C468.779 14.9823 468.827 14.8717 468.895 14.7736C468.963 14.6754 469.05 14.5916 469.151 14.527C469.251 14.4624 469.364 14.4183 469.481 14.3971C469.599 14.3759 469.719 14.378 469.836 14.4034C472.256 14.9237 474.603 15.5407 476.926 16.2182C477.136 16.2794 477.316 16.4141 477.435 16.5977C477.553 16.7813 477.601 17.0014 477.57 17.2177C477.539 17.4339 477.431 17.6317 477.266 17.7748C477.101 17.9179 476.89 17.9967 476.672 17.9967V17.9604ZM416.965 17.779C416.767 17.7782 416.575 17.7128 416.418 17.5926C416.261 17.4725 416.147 17.3043 416.094 17.1135C416.061 16.9999 416.051 16.8809 416.064 16.7633C416.077 16.6456 416.113 16.5318 416.171 16.4283C416.228 16.3248 416.305 16.2337 416.398 16.1602C416.491 16.0868 416.597 16.0325 416.711 16.0005C419.046 15.3471 421.442 14.7906 423.825 14.2583C423.946 14.2197 424.074 14.2069 424.2 14.2207C424.326 14.2344 424.447 14.2744 424.557 14.3381C424.667 14.4018 424.762 14.4878 424.836 14.5904C424.91 14.6931 424.962 14.8102 424.989 14.9342C425.015 15.0583 425.015 15.1864 424.989 15.3104C424.963 15.4345 424.911 15.5516 424.836 15.6544C424.762 15.7571 424.667 15.8431 424.558 15.9069C424.448 15.9707 424.326 16.0108 424.2 16.0247C421.853 16.5207 419.506 17.1014 417.207 17.7427L416.965 17.779ZM463.702 15.0447H463.521C461.161 14.6696 458.754 14.3672 456.383 14.1494C456.258 14.148 456.134 14.1208 456.02 14.0696C455.906 14.0183 455.804 13.9441 455.72 13.8515C455.636 13.7589 455.572 13.65 455.533 13.5315C455.493 13.4131 455.478 13.2877 455.489 13.1632C455.499 13.0387 455.536 12.9178 455.596 12.808C455.655 12.6983 455.737 12.602 455.836 12.5254C455.935 12.4487 456.048 12.3933 456.169 12.3625C456.29 12.3318 456.417 12.3264 456.54 12.3467C458.96 12.5645 461.379 12.8669 463.799 13.2541C464.035 13.2956 464.245 13.4276 464.385 13.6219C464.526 13.8163 464.584 14.0576 464.549 14.2946C464.507 14.4904 464.4 14.6666 464.247 14.7957C464.094 14.9248 463.902 14.9996 463.702 15.0084V15.0447ZM429.959 14.96C429.744 14.9599 429.535 14.8832 429.371 14.7435C429.207 14.6039 429.098 14.4104 429.064 14.1978C429.029 13.959 429.089 13.7161 429.232 13.5215C429.375 13.3268 429.588 13.196 429.826 13.1573C432.246 12.7943 434.666 12.4919 437.085 12.2862C437.204 12.2759 437.324 12.2891 437.439 12.3252C437.553 12.3612 437.658 12.4194 437.75 12.4964C437.842 12.5733 437.917 12.6676 437.972 12.7737C438.027 12.8798 438.061 12.9958 438.071 13.1149C438.082 13.2341 438.068 13.3541 438.032 13.4682C437.996 13.5822 437.938 13.688 437.861 13.7796C437.784 13.8712 437.69 13.9467 437.584 14.0018C437.478 14.057 437.362 14.0907 437.243 14.101C434.823 14.3067 432.464 14.5849 430.104 14.96H429.959ZM450.466 13.7501C448.047 13.6654 445.627 13.6533 443.268 13.7501C443.149 13.7567 443.03 13.7391 442.918 13.6984C442.806 13.6577 442.703 13.5948 442.616 13.5134C442.529 13.432 442.459 13.3338 442.411 13.2248C442.363 13.1158 442.338 12.9982 442.336 12.879C442.331 12.7594 442.35 12.6401 442.392 12.5281C442.435 12.416 442.499 12.3135 442.581 12.2267C442.663 12.1398 442.762 12.0704 442.872 12.0224C442.981 11.9744 443.1 11.949 443.219 11.9474C445.639 11.8627 448.059 11.8748 450.478 11.9474C450.598 11.9506 450.715 11.9772 450.824 12.0257C450.933 12.0742 451.031 12.1437 451.113 12.2302C451.195 12.3167 451.259 12.4186 451.302 12.5299C451.345 12.6412 451.365 12.7599 451.362 12.879C451.344 13.106 451.242 13.3182 451.077 13.4747C450.911 13.6311 450.694 13.7206 450.466 13.7259V13.7501Z" fill="#E0E0E0"/>
<path d="M445.904 154.42V152.485H445.432C444.714 151.174 443.624 150.104 442.299 149.412C439.596 148.04 436.607 147.325 433.576 147.325C430.544 147.325 427.556 148.04 424.852 149.412C423.528 150.104 422.437 151.174 421.719 152.485H421.247V154.36C421.247 156.211 422.457 158.074 424.877 159.49C427.582 160.855 430.57 161.567 433.6 161.567C436.63 161.567 439.618 160.855 442.323 159.49C444.718 158.123 445.916 156.259 445.904 154.42Z" fill="#37474F"/>
<path d="M433.576 159.611C440.384 159.611 445.904 156.42 445.904 152.485C445.904 148.549 440.384 145.359 433.576 145.359C426.767 145.359 421.247 148.549 421.247 152.485C421.247 156.42 426.767 159.611 433.576 159.611Z" fill="#455A64"/>
<path d="M430.405 93.1532V151.65C430.431 151.927 430.53 152.193 430.691 152.421C430.853 152.648 431.071 152.829 431.325 152.944C432.021 153.296 432.789 153.48 433.569 153.48C434.349 153.48 435.118 153.296 435.813 152.944C436.07 152.831 436.292 152.652 436.455 152.424C436.619 152.196 436.719 151.929 436.745 151.65V93.1532H430.405Z" fill="#37474F"/>
<path d="M447.792 49.3684C444.707 47.5899 441.9 47.4447 439.795 48.6183L400.607 71.2669L420.268 110.696L459.588 87.9508V70.6982C459.588 62.6768 454.301 53.131 447.792 49.3684Z" fill="#455A64"/>
<path d="M420.267 93.4314V110.696L396.687 97.0731V79.8205C396.687 71.7991 401.961 68.351 408.471 72.1137C412.645 74.5334 416.31 79.3002 418.403 84.5268C419.574 87.3528 420.206 90.373 420.267 93.4314Z" fill="#37474F"/>
<path d="M420.267 93.4314V110.696L396.687 97.0731L418.403 84.5269C419.574 87.3529 420.206 90.373 420.267 93.4314Z" fill="#263238"/>
<path d="M416.336 99.3477C414.17 93.0806 407.129 84.9503 400.607 81.1998C394.086 77.4492 390.578 79.4697 392.743 85.7367L396.675 97.0852L420.268 110.708C420.268 110.708 418.513 105.615 416.336 99.3477Z" fill="#455A64"/>
<path d="M432.559 94.0848L431.24 93.3225C430.957 93.1924 430.645 93.1396 430.334 93.1693C430.024 93.1991 429.727 93.3104 429.474 93.4919C428.745 93.9688 428.139 94.6104 427.704 95.3649C427.269 96.1194 427.017 96.9657 426.97 97.8353C426.937 98.1468 426.988 98.4615 427.118 98.7466C427.247 99.0317 427.451 99.2768 427.708 99.4565L428.918 100.158L429.147 99.7832C429.399 99.7289 429.64 99.635 429.861 99.5049C430.59 99.0307 431.196 98.3913 431.631 97.6388C432.067 96.8862 432.318 96.0416 432.366 95.1736C432.364 94.9572 432.336 94.7417 432.281 94.5324L432.559 94.0848Z" fill="#263238"/>
<path d="M430.732 94.23C430.003 94.7042 429.397 95.3436 428.962 96.0962C428.527 96.8487 428.275 97.6933 428.228 98.5613C428.228 100.158 429.353 100.8 430.732 100.001C431.461 99.5275 432.068 98.8883 432.503 98.1356C432.939 97.3829 433.19 96.538 433.236 95.6697C433.273 94.0727 432.063 93.4315 430.732 94.23Z" fill="#37474F"/>
<path d="M430.732 97.7991C430.636 97.7991 430.542 97.7803 430.454 97.7438C430.366 97.7073 430.286 97.6539 430.218 97.5864C430.151 97.519 430.098 97.439 430.061 97.3509C430.025 97.2629 430.006 97.1685 430.006 97.0731V72.1137C430.006 71.9212 430.082 71.7366 430.218 71.6004C430.355 71.4643 430.539 71.3878 430.732 71.3878C430.924 71.3878 431.109 71.4643 431.245 71.6004C431.381 71.7366 431.458 71.9212 431.458 72.1137V97.0731C431.458 97.2657 431.381 97.4503 431.245 97.5864C431.109 97.7226 430.924 97.7991 430.732 97.7991Z" fill="#263238"/>
<path d="M431.386 72.7671V79.2761L438.367 72.1138L431.386 72.7671Z" fill="#37474F"/>
<path d="M64.3631 288.679C63.7581 289.005 52.6516 292.151 48.5381 286.719C44.4246 281.286 51.2603 272.817 47.4008 269.696C43.5414 266.574 32.7252 269.696 30.124 263.138C27.5228 256.581 35.2296 253.75 30.8984 247.132C28.1641 242.958 20.5178 240.659 20.8686 236.776C21.3768 231.101 31.8299 229.516 40.9523 235.65C50.0746 241.784 54.3333 236.751 57.2249 236.34C60.1165 235.929 66.3593 236.836 66.1658 246.999C65.9722 257.162 64.3631 288.679 64.3631 288.679Z" fill="#407BFF"/>
<path d="M65.1012 274.269C64.9568 274.269 64.8172 274.218 64.7067 274.125C64.5962 274.032 64.5217 273.903 64.4962 273.761C61.3143 254.403 38.8956 238.76 27.2326 235.396C27.1554 235.376 27.0832 235.34 27.0204 235.29C26.9576 235.241 26.9054 235.179 26.867 235.109C26.8286 235.039 26.8047 234.962 26.7968 234.882C26.789 234.803 26.7973 234.723 26.8212 234.646C26.8661 234.492 26.9704 234.362 27.1111 234.285C27.2517 234.208 27.4173 234.19 27.5713 234.235C39.4884 237.683 62.4274 253.762 65.694 273.568C65.7185 273.725 65.6802 273.885 65.5874 274.014C65.4946 274.143 65.3547 274.23 65.1979 274.257L65.1012 274.269Z" fill="white"/>
<path d="M38.6538 258.069C38.5208 258.07 38.391 258.028 38.2846 257.948C38.1782 257.868 38.1011 257.755 38.0653 257.627C38.0295 257.499 38.0369 257.363 38.0864 257.239C38.136 257.116 38.2248 257.012 38.3393 256.944C38.7022 256.726 47.3406 251.681 55.8338 254.04C55.9943 254.082 56.1316 254.186 56.2155 254.329C56.2995 254.472 56.3232 254.642 56.2815 254.803C56.2398 254.963 56.136 255.1 55.9931 255.184C55.8501 255.268 55.6797 255.292 55.5193 255.25C47.51 253.024 39.041 257.972 38.9563 258.021C38.8622 258.066 38.7572 258.082 38.6538 258.069Z" fill="white"/>
<path d="M380.645 186.458C385.412 187.111 393.53 184.352 394.111 176.416C394.691 168.479 397.97 166.326 403.983 165.031C409.996 163.736 411.763 161.643 412.452 157.869C413.142 154.094 408.569 149.581 409.851 143.895C411.134 138.208 415.416 138.221 419.627 131.796C422.325 127.658 416.796 121.343 407.589 124.053C398.382 126.763 399.12 132.704 389.913 133.466C380.706 134.228 374.934 139.818 374.753 146.774C374.572 153.731 380.645 186.458 380.645 186.458Z" fill="#407BFF"/>
<path opacity="0.2" d="M380.645 186.458C385.412 187.111 393.53 184.352 394.111 176.416C394.691 168.479 397.97 166.326 403.983 165.031C409.996 163.736 411.763 161.643 412.452 157.869C413.142 154.094 408.569 149.581 409.851 143.895C411.134 138.208 415.416 138.221 419.627 131.796C422.325 127.658 416.796 121.343 407.589 124.053C398.382 126.763 399.12 132.704 389.913 133.466C380.706 134.228 374.934 139.818 374.753 146.774C374.572 153.731 380.645 186.458 380.645 186.458Z" fill="black"/>
<path d="M378.903 171.238H378.831C378.753 171.222 378.679 171.191 378.613 171.146C378.547 171.102 378.491 171.045 378.447 170.978C378.403 170.912 378.373 170.838 378.358 170.76C378.343 170.682 378.343 170.602 378.359 170.524C382.811 148.516 407.093 128.372 413.009 126.315C413.17 126.263 413.345 126.275 413.496 126.351C413.646 126.428 413.761 126.56 413.814 126.721C413.867 126.881 413.854 127.056 413.778 127.207C413.702 127.358 413.569 127.472 413.409 127.525C407.625 129.534 383.9 149.303 379.532 170.826C379.488 170.954 379.402 171.064 379.288 171.139C379.174 171.213 379.039 171.248 378.903 171.238Z" fill="white"/>
<path d="M59.2812 163.434C59.3403 162.343 59.656 161.281 60.2026 160.335C60.7492 159.389 61.5113 158.586 62.4269 157.99L223.229 65.1449C224.204 64.6554 225.279 64.4005 226.369 64.4005C227.459 64.4005 228.534 64.6554 229.509 65.1449L233.053 67.2017C233.971 67.7956 234.735 68.5988 235.282 69.5452C235.828 70.4917 236.143 71.5544 236.199 72.646V195.907C236.137 196.997 235.82 198.057 235.274 199.003C234.728 199.949 233.967 200.753 233.053 201.351L72.2509 294.183C71.2763 294.679 70.1985 294.937 69.1053 294.937C68.0121 294.937 66.9343 294.679 65.9597 294.183L62.4269 292.139C61.5126 291.541 60.7515 290.737 60.2051 289.792C59.6587 288.846 59.3422 287.785 59.2812 286.694V163.434Z" fill="#407BFF"/>
<path opacity="0.3" d="M59.2812 163.434C59.3403 162.343 59.656 161.281 60.2026 160.335C60.7492 159.389 61.5113 158.586 62.4269 157.99L223.229 65.1449C224.204 64.6554 225.279 64.4005 226.369 64.4005C227.459 64.4005 228.534 64.6554 229.509 65.1449L233.053 67.2017C233.971 67.7956 234.735 68.5988 235.282 69.5452C235.828 70.4917 236.143 71.5544 236.199 72.646V195.907C236.137 196.997 235.82 198.057 235.274 199.003C234.728 199.949 233.967 200.753 233.053 201.351L72.2509 294.183C71.2763 294.679 70.1985 294.937 69.1053 294.937C68.0121 294.937 66.9343 294.679 65.9597 294.183L62.4269 292.139C61.5126 291.541 60.7515 290.737 60.2051 289.792C59.6587 288.846 59.3422 287.785 59.2812 286.694V163.434Z" fill="black"/>
<path d="M74.0173 168.322L60.2007 160.337C59.6359 161.274 59.3194 162.34 59.2812 163.434V286.694C59.3422 287.785 59.6587 288.846 60.2051 289.792C60.7515 290.737 61.5126 291.541 62.4269 292.139L65.9597 294.183C66.9343 294.679 68.0121 294.937 69.1053 294.937C70.1985 294.937 71.2763 294.679 72.2509 294.183L74.0173 293.167V168.322Z" fill="#407BFF"/>
<path opacity="0.5" d="M74.0173 168.322L60.2007 160.337C59.6359 161.274 59.3194 162.34 59.2812 163.434V286.694C59.3422 287.785 59.6587 288.846 60.2051 289.792C60.7515 290.737 61.5126 291.541 62.4269 292.139L65.9597 294.183C66.9343 294.679 68.0121 294.937 69.1053 294.937C70.1985 294.937 71.2763 294.679 72.2509 294.183L74.0173 293.167V168.322Z" fill="black"/>
<path d="M236.199 72.6461V195.907C236.158 197.035 235.82 198.133 235.219 199.089C234.754 199.894 234.128 200.594 233.38 201.145L233.259 201.218L233.053 201.351L72.2509 294.183C71.9432 294.401 71.5856 294.537 71.2113 294.579C70.8369 294.621 70.458 294.569 70.1095 294.425C69.7745 294.214 69.5038 293.916 69.3268 293.562C69.1497 293.208 69.0731 292.812 69.1053 292.417V169.108C69.0779 168.667 69.158 168.226 69.3387 167.822C69.5193 167.418 69.7951 167.065 70.1425 166.791C70.4898 166.517 70.8983 166.332 71.333 166.251C71.7676 166.17 72.2155 166.196 72.6381 166.326L140.257 182.405L149.113 184.51C150.159 184.706 151.238 184.612 152.233 184.239C153.229 183.865 154.104 183.227 154.763 182.392L165.023 168.104L234.082 71.9565C235.243 70.3353 236.199 70.6377 236.199 72.6461Z" fill="#407BFF"/>
<path opacity="0.2" d="M236.199 72.6461V195.907C236.158 197.035 235.82 198.133 235.219 199.089C234.754 199.894 234.128 200.594 233.38 201.145L233.259 201.218L233.053 201.351L72.2509 294.183C71.9432 294.401 71.5856 294.537 71.2113 294.579C70.8369 294.621 70.458 294.569 70.1095 294.425C69.7745 294.214 69.5038 293.916 69.3268 293.562C69.1497 293.208 69.0731 292.812 69.1053 292.417V169.108C69.0779 168.667 69.158 168.226 69.3387 167.822C69.5193 167.418 69.7951 167.065 70.1425 166.791C70.4898 166.517 70.8983 166.332 71.333 166.251C71.7676 166.17 72.2155 166.196 72.6381 166.326L140.257 182.405L149.113 184.51C150.159 184.706 151.238 184.612 152.233 184.239C153.229 183.865 154.104 183.227 154.763 182.392L165.023 168.104L234.082 71.9565C235.243 70.3353 236.199 70.6377 236.199 72.6461Z" fill="black"/>
<path d="M233.054 201.351L233.26 201.218L233.381 201.145C234.129 200.594 234.755 199.894 235.22 199.089C235.814 198.147 236.152 197.067 236.199 195.955L165.023 168.128L212.692 213.135L233.054 201.351Z" fill="#407BFF"/>
<path opacity="0.6" d="M233.054 201.351L233.26 201.218L233.381 201.145C234.129 200.594 234.755 199.894 235.22 199.089C235.814 198.147 236.152 197.067 236.199 195.955L165.023 168.128L212.692 213.135L233.054 201.351Z" fill="black"/>
<path d="M69.105 292.417C69.0588 292.819 69.1261 293.226 69.2993 293.592C69.4725 293.957 69.7447 294.267 70.085 294.486C70.4335 294.629 70.8124 294.682 71.1868 294.64C71.5611 294.597 71.9187 294.461 72.2264 294.244L127.614 262.171L140.257 182.32L69.105 290.324V292.417Z" fill="#407BFF"/>
<path opacity="0.6" d="M69.105 292.417C69.0588 292.819 69.1261 293.226 69.2993 293.592C69.4725 293.957 69.7447 294.267 70.085 294.486C70.4335 294.629 70.8124 294.682 71.1868 294.64C71.5611 294.597 71.9187 294.461 72.2264 294.244L127.614 262.171L140.257 182.32L69.105 290.324V292.417Z" fill="black"/>
<path d="M235.219 199.089C234.754 199.894 234.128 200.594 233.38 201.145L233.259 201.218L72.2508 294.184C71.9431 294.401 71.5855 294.537 71.2111 294.579C70.8368 294.622 70.4578 294.569 70.1094 294.426L147.117 171.492C148.665 169.029 151.048 167.207 153.829 166.358C156.611 165.509 159.606 165.691 162.264 166.87L235.219 199.089Z" fill="#407BFF"/>
<path opacity="0.2" d="M235.219 199.089C234.754 199.894 234.128 200.594 233.38 201.145L233.259 201.218L72.2508 294.184C71.9431 294.401 71.5855 294.537 71.2111 294.579C70.8368 294.622 70.4578 294.569 70.1094 294.426L147.117 171.492C148.665 169.029 151.048 167.207 153.829 166.358C156.611 165.509 159.606 165.691 162.264 166.87L235.219 199.089Z" fill="black"/>
<path d="M69.1055 165.479L143.064 198.145C145.727 199.32 148.724 199.497 151.507 198.641C154.289 197.786 156.669 195.956 158.212 193.487L235.873 69.198L69.1055 165.479Z" fill="#407BFF"/>
<path opacity="0.6" d="M69.1055 165.479L143.064 198.145C145.727 199.32 148.724 199.497 151.507 198.641C154.289 197.786 156.669 195.956 158.212 193.487L235.873 69.198L69.1055 165.479Z" fill="black"/>
<path d="M69.1055 165.479L143.584 193.305C146.158 194.266 148.982 194.323 151.593 193.465C154.203 192.607 156.443 190.887 157.945 188.587L235.873 69.198L69.1055 165.479Z" fill="#407BFF"/>
<path opacity="0.2" d="M69.1055 165.479L143.584 193.305C146.158 194.266 148.982 194.323 151.593 193.465C154.203 192.607 156.443 190.887 157.945 188.587L235.873 69.198L69.1055 165.479Z" fill="black"/>
<path d="M86.7456 178.618C86.8018 177.526 87.1163 176.463 87.6631 175.517C88.21 174.57 88.9736 173.767 89.8912 173.173L250.694 80.3287C251.668 79.8335 252.746 79.5754 253.839 79.5754C254.933 79.5754 256.01 79.8335 256.985 80.3287L260.53 82.3733C261.443 82.9707 262.203 83.775 262.747 84.721C263.292 85.6669 263.606 86.7278 263.663 87.8177V211.078C263.604 212.168 263.289 213.228 262.745 214.173C262.201 215.119 261.442 215.924 260.53 216.523L99.7153 309.355C98.7411 309.845 97.666 310.1 96.5757 310.1C95.4855 310.1 94.4103 309.845 93.4361 309.355L89.8912 307.31C88.9776 306.712 88.2171 305.908 87.6707 304.962C87.1244 304.017 86.8076 302.956 86.7456 301.866V178.618Z" fill="#455A64"/>
<path d="M86.7456 178.618C86.8018 177.526 87.1163 176.463 87.6631 175.517C88.21 174.57 88.9736 173.767 89.8912 173.173L250.694 80.3287C251.668 79.8335 252.746 79.5754 253.839 79.5754C254.933 79.5754 256.01 79.8335 256.985 80.3287L260.53 82.3733C261.443 82.9707 262.203 83.775 262.747 84.721C263.292 85.6669 263.606 86.7278 263.663 87.8177V211.078C263.604 212.168 263.289 213.228 262.745 214.173C262.201 215.119 261.442 215.924 260.53 216.523L99.7153 309.355C98.7411 309.845 97.666 310.1 96.5757 310.1C95.4855 310.1 94.4103 309.845 93.4361 309.355L89.8912 307.31C88.9776 306.712 88.2171 305.908 87.6707 304.962C87.1244 304.017 86.8076 302.956 86.7456 301.866V178.618Z" fill="#455A64"/>
<path d="M101.494 183.53L87.6651 175.557C87.0988 176.494 86.7822 177.56 86.7456 178.654V301.878C86.8076 302.968 87.1244 304.029 87.6707 304.975C88.2171 305.92 88.9776 306.724 89.8912 307.323L93.4361 309.367C94.4103 309.857 95.4855 310.112 96.5757 310.112C97.666 310.112 98.7411 309.857 99.7153 309.367L101.494 308.339V183.53Z" fill="#263238"/>
<path d="M263.675 87.8177V211.078C263.635 212.207 263.297 213.304 262.695 214.26C262.231 215.065 261.605 215.765 260.857 216.317L260.736 216.389L260.53 216.523L99.7274 309.355C99.4197 309.572 99.0621 309.709 98.6877 309.751C98.3134 309.793 97.9344 309.74 97.586 309.597C97.2457 309.378 96.9735 309.068 96.8003 308.703C96.6271 308.337 96.5598 307.93 96.606 307.528V184.28C96.5786 183.838 96.6587 183.397 96.8393 182.994C97.02 182.59 97.2958 182.236 97.6431 181.963C97.9905 181.689 98.399 181.504 98.8336 181.423C99.2683 181.342 99.7161 181.367 100.139 181.497L167.758 197.576L176.614 199.681C177.659 199.877 178.738 199.783 179.734 199.41C180.73 199.037 181.605 198.399 182.264 197.564L192.512 183.276L261.57 87.1281C262.683 85.5311 263.675 85.8093 263.675 87.8177Z" fill="#37474F"/>
<path d="M260.53 216.523L260.736 216.39L260.857 216.317C261.605 215.765 262.231 215.065 262.696 214.26C263.283 213.321 263.616 212.245 263.663 211.139L192.5 183.312L240.156 228.295L260.53 216.523Z" fill="#263238"/>
<path d="M96.5813 307.54C96.5351 307.942 96.6024 308.349 96.7756 308.715C96.9488 309.08 97.221 309.39 97.5613 309.609C97.9098 309.752 98.2887 309.805 98.6631 309.763C99.0374 309.721 99.395 309.584 99.7028 309.367L155.066 277.403L167.709 197.552L96.5571 305.471L96.5813 307.54Z" fill="#263238"/>
<path d="M262.683 214.26C262.218 215.065 261.592 215.766 260.844 216.317L260.723 216.39L99.7269 309.355C99.4192 309.572 99.0615 309.709 98.6872 309.751C98.3129 309.793 97.9339 309.74 97.5854 309.597L174.581 186.675C176.125 184.209 178.506 182.381 181.288 181.528C184.07 180.675 187.067 180.853 189.728 182.03L262.683 214.26Z" fill="#37474F"/>
<path d="M96.5811 180.662L170.54 213.329C173.201 214.501 176.196 214.675 178.975 213.82C181.755 212.964 184.133 211.136 185.675 208.671L263.336 84.3212L96.5811 180.662Z" fill="#263238"/>
<path d="M96.5811 180.662L171.048 208.489C173.623 209.453 176.45 209.511 179.063 208.653C181.676 207.796 183.918 206.074 185.421 203.771L263.336 84.3212L96.5811 180.662Z" fill="#37474F"/>
<path d="M204.694 276.459V153.199C204.807 150.86 205.537 148.593 206.812 146.629L283.505 39.8347C284.904 37.8836 286.852 36.393 289.102 35.5528C291.351 34.7125 293.8 34.5605 296.136 35.1162L368.255 52.2599C370.579 52.8785 372.821 53.772 374.934 54.9216L378.479 56.9663C379.39 57.5658 380.148 58.3706 380.692 59.3161C381.236 60.2616 381.551 61.3214 381.612 62.4107V185.671C381.55 186.76 381.234 187.819 380.69 188.764C380.146 189.709 379.389 190.515 378.479 191.116L217.664 283.948C216.691 284.44 215.615 284.697 214.524 284.697C213.434 284.697 212.358 284.44 211.385 283.948L207.84 281.903C206.926 281.306 206.165 280.502 205.618 279.556C205.072 278.61 204.755 277.55 204.694 276.459Z" fill="#407BFF"/>
<path opacity="0.3" d="M204.694 276.459V153.199C204.807 150.86 205.537 148.593 206.812 146.629L283.505 39.8347C284.904 37.8836 286.852 36.393 289.102 35.5528C291.351 34.7125 293.8 34.5605 296.136 35.1162L368.255 52.2599C370.579 52.8785 372.821 53.772 374.934 54.9216L378.479 56.9663C379.39 57.5658 380.148 58.3706 380.692 59.3161C381.236 60.2616 381.551 61.3214 381.612 62.4107V185.671C381.55 186.76 381.234 187.819 380.69 188.764C380.146 189.709 379.389 190.515 378.479 191.116L217.664 283.948C216.691 284.44 215.615 284.697 214.524 284.697C213.434 284.697 212.358 284.44 211.385 283.948L207.84 281.903C206.926 281.306 206.165 280.502 205.618 279.556C205.072 278.61 204.755 277.55 204.694 276.459Z" fill="white"/>
<path d="M219.431 93.625V250.907C219.431 252.903 220.846 253.726 222.576 252.722L373.555 165.612C374.471 165.016 375.234 164.213 375.78 163.267C376.327 162.32 376.642 161.259 376.7 160.167V2.88557C376.7 0.877199 375.297 0.0665926 373.555 1.07078L222.576 88.1807C221.661 88.7767 220.899 89.5805 220.352 90.5265C219.805 91.4725 219.49 92.5341 219.431 93.625Z" fill="#FAFAFA"/>
<path d="M221.173 253.774C220.783 253.777 220.399 253.677 220.06 253.484C219.646 253.208 219.315 252.825 219.102 252.375C218.888 251.925 218.801 251.426 218.85 250.931V93.6492C218.907 92.4505 219.25 91.2827 219.85 90.2432C220.45 89.2036 221.289 88.3223 222.298 87.6725L373.276 0.562637C373.671 0.241634 374.153 0.048147 374.66 0.00787507C375.166 -0.0323968 375.673 0.0824529 376.113 0.337173C376.553 0.591893 376.905 0.97442 377.122 1.43393C377.339 1.89344 377.412 2.40819 377.329 2.90977V160.192C377.273 161.389 376.931 162.555 376.331 163.593C375.731 164.631 374.891 165.51 373.881 166.156L222.903 253.266C222.382 253.586 221.784 253.761 221.173 253.774ZM374.958 1.17967C374.567 1.20202 374.189 1.32271 373.857 1.53053L222.879 88.7009C222.057 89.2464 221.372 89.9749 220.879 90.8292C220.386 91.6835 220.097 92.6405 220.036 93.625V250.907C219.963 251.19 219.985 251.49 220.099 251.76C220.212 252.03 220.411 252.255 220.664 252.402C220.918 252.549 221.212 252.608 221.503 252.572C221.793 252.536 222.064 252.406 222.274 252.201L373.252 165.091C374.075 164.547 374.76 163.818 375.253 162.964C375.747 162.109 376.035 161.152 376.095 160.167V2.88557C376.13 2.60184 376.091 2.31407 375.983 2.04947C375.875 1.78486 375.701 1.55213 375.478 1.37325C375.326 1.2628 375.146 1.19589 374.958 1.17967Z" fill="#E0E0E0"/>
<path d="M216.176 156.199L205.287 149.908C204.935 150.971 204.739 152.079 204.707 153.199V276.459C204.768 277.55 205.084 278.61 205.63 279.556C206.177 280.502 206.938 281.306 207.852 281.903L211.385 283.948C212.357 284.443 213.433 284.701 214.525 284.701C215.616 284.701 216.692 284.443 217.664 283.948L219.176 283.089L216.176 156.199Z" fill="#407BFF"/>
<g opacity="0.1">
<path d="M216.176 156.199L205.287 149.908C204.935 150.971 204.739 152.079 204.707 153.199V276.459C204.768 277.55 205.084 278.61 205.63 279.556C206.177 280.502 206.938 281.306 207.852 281.903L211.385 283.948C212.357 284.443 213.433 284.701 214.525 284.701C215.616 284.701 216.692 284.443 217.664 283.948L219.176 283.089L216.176 156.199Z" fill="black"/>
</g>
<path d="M381.624 62.4107V185.671C381.583 186.8 381.245 187.897 380.644 188.853C380.18 189.658 379.554 190.358 378.805 190.91L378.684 190.982L378.479 191.116L217.676 283.948C217.368 284.165 217.011 284.301 216.636 284.344C216.262 284.386 215.883 284.333 215.535 284.19C215.194 283.971 214.922 283.661 214.749 283.296C214.576 282.93 214.508 282.523 214.555 282.121V158.873C214.527 158.431 214.607 157.99 214.788 157.587C214.969 157.183 215.245 156.829 215.592 156.556C215.939 156.282 216.348 156.097 216.782 156.016C217.217 155.935 217.665 155.96 218.087 156.09L285.67 172.169L294.526 174.274C295.574 174.472 296.655 174.38 297.653 174.007C298.651 173.633 299.528 172.994 300.189 172.157L310.448 157.869L379.507 61.721C380.668 60.124 381.624 60.4023 381.624 62.4107Z" fill="#407BFF"/>
<path opacity="0.3" d="M381.624 62.4107V185.671C381.583 186.8 381.245 187.897 380.644 188.853C380.18 189.658 379.554 190.358 378.805 190.91L378.684 190.982L378.479 191.116L217.676 283.948C217.368 284.165 217.011 284.301 216.636 284.344C216.262 284.386 215.883 284.333 215.535 284.19C215.194 283.971 214.922 283.661 214.749 283.296C214.576 282.93 214.508 282.523 214.555 282.121V158.873C214.527 158.431 214.607 157.99 214.788 157.587C214.969 157.183 215.245 156.829 215.592 156.556C215.939 156.282 216.348 156.097 216.782 156.016C217.217 155.935 217.665 155.96 218.087 156.09L285.67 172.169L294.526 174.274C295.574 174.472 296.655 174.38 297.653 174.007C298.651 173.633 299.528 172.994 300.189 172.157L310.448 157.869L379.507 61.721C380.668 60.124 381.624 60.4023 381.624 62.4107Z" fill="white"/>
<path d="M378.479 191.116L378.684 190.982L378.805 190.91C379.554 190.358 380.18 189.658 380.644 188.853C381.232 187.91 381.566 186.83 381.612 185.72L310.448 157.893L358.105 202.888L378.479 191.116Z" fill="#407BFF"/>
<path d="M214.531 282.133C214.485 282.535 214.552 282.942 214.725 283.308C214.899 283.673 215.171 283.983 215.511 284.202C215.859 284.345 216.238 284.398 216.613 284.356C216.987 284.314 217.345 284.177 217.652 283.96L273.016 251.996L285.659 172.145L214.507 280.064L214.531 282.133Z" fill="#407BFF"/>
<path d="M380.645 188.853C380.18 189.658 379.554 190.358 378.806 190.91L378.685 190.982L217.677 283.948C217.369 284.165 217.011 284.301 216.637 284.344C216.263 284.386 215.884 284.333 215.535 284.19L292.531 161.268C294.074 158.805 296.453 156.979 299.233 156.126C302.012 155.273 305.006 155.449 307.666 156.622L380.645 188.853Z" fill="#407BFF"/>
<path opacity="0.3" d="M380.645 188.853C380.18 189.658 379.554 190.358 378.806 190.91L378.685 190.982L217.677 283.948C217.369 284.165 217.011 284.301 216.637 284.344C216.263 284.386 215.884 284.333 215.535 284.19L292.531 161.268C294.074 158.805 296.453 156.979 299.233 156.126C302.012 155.273 305.006 155.449 307.666 156.622L380.645 188.853Z" fill="white"/>
<path d="M285.913 129.848C284.501 130.067 283.057 129.939 281.706 129.475C280.355 129.011 279.137 128.226 278.157 127.187C276.318 125.142 275.399 121.984 275.399 117.738C275.402 112.946 276.429 108.211 278.411 103.848C280.446 99.3596 283.256 95.2642 286.711 91.7497C290.426 87.8972 294.661 84.5824 299.294 81.9015C303.835 79.2882 307.71 77.8404 310.92 77.5581C314.151 77.2677 316.583 78.1025 318.252 80.0383C319.922 81.9741 320.744 84.9382 320.744 88.9066C320.815 92.8422 319.882 96.731 318.034 100.207C316.406 103.354 313.924 105.979 310.872 107.78C309.819 108.529 308.527 108.865 307.242 108.724C306.785 108.634 306.364 108.413 306.029 108.089C305.694 107.765 305.46 107.351 305.355 106.897C304.348 108.803 303.068 110.551 301.556 112.087C300.027 113.666 298.284 115.022 296.378 116.116C293.087 117.979 290.462 118.536 288.526 117.895C286.59 117.254 285.671 115.294 285.671 112.027C285.698 107.922 286.963 103.92 289.3 100.545C291.844 96.8037 295.224 93.7054 299.173 91.4957C300.821 90.5136 302.613 89.7952 304.484 89.3663C305.874 88.9895 307.34 88.9895 308.731 89.3663V102.106C308.731 103.135 308.912 103.764 309.263 104.006C309.614 104.248 310.195 104.127 311.017 103.655C312.55 102.658 313.684 101.155 314.223 99.4081C315.041 97.0483 315.431 94.5612 315.373 92.0643C315.373 88.8864 314.679 86.5756 313.292 85.1318C312.55 84.407 311.646 83.8706 310.654 83.5674C309.663 83.2643 308.613 83.2033 307.593 83.3896C304.64 83.8409 301.81 84.8951 299.282 86.4868C293.932 89.454 289.321 93.5895 285.792 98.5854C282.53 103.274 280.797 108.856 280.831 114.568C280.831 118.044 281.545 120.581 282.973 122.178C283.713 122.977 284.639 123.581 285.669 123.936C286.7 124.29 287.801 124.385 288.877 124.21C291.888 123.784 294.774 122.724 297.346 121.101C299.121 120.074 300.801 118.892 302.367 117.568C303.824 116.365 305.151 115.01 306.323 113.527C306.444 113.371 306.587 113.233 306.746 113.116C306.855 113.055 306.964 113.116 307.061 113.261L308.392 115.681C308.44 115.777 308.477 115.878 308.501 115.983C308.458 116.253 308.326 116.5 308.126 116.685C306.664 118.443 305.044 120.062 303.286 121.524C301.436 123.077 299.457 124.469 297.37 125.686C293.894 127.881 289.987 129.301 285.913 129.848ZM301.641 107.103C302.792 105.744 303.464 104.043 303.552 102.263V94.8833C301.826 95.0291 300.162 95.6029 298.713 96.5529C296.405 97.8511 294.439 99.68 292.978 101.888C291.608 103.914 290.871 106.302 290.861 108.748C290.861 110.793 291.369 112.015 292.397 112.378C293.426 112.741 295.011 112.378 297.176 111.083C298.93 110.069 300.464 108.716 301.689 107.103H301.641Z" fill="#E0E0E0"/>
<path d="M131.825 141.971L120.028 135.135H119.944C115.915 132.861 110.362 133.2 104.216 136.744C91.863 143.87 81.8574 161.208 81.8574 175.46C81.8574 182.586 84.3497 187.559 88.3786 189.978L99.352 196.257L101.336 192.954C103.586 192.45 105.748 191.61 107.748 190.462C120.089 183.324 130.107 165.987 130.107 151.747C130.1 149.822 129.864 147.905 129.405 146.036L131.825 141.971Z" fill="#F28F8F"/>
<path d="M131.825 141.971L120.028 135.135H119.944C115.915 132.861 110.362 133.2 104.216 136.744C91.863 143.87 81.8574 161.208 81.8574 175.46C81.8574 182.586 84.3497 187.559 88.3786 189.978L99.352 196.257L101.336 192.954C103.586 192.45 105.748 191.61 107.748 190.462C120.089 183.324 130.107 165.987 130.107 151.747C130.1 149.822 129.864 147.905 129.405 146.036L131.825 141.971Z" fill="#407BFF"/>
<path opacity="0.4" d="M131.825 141.971L120.028 135.135H119.944C115.915 132.861 110.362 133.2 104.216 136.744C91.863 143.87 81.8574 161.208 81.8574 175.46C81.8574 182.586 84.3497 187.559 88.3786 189.978L99.352 196.257L101.336 192.954C103.586 192.45 105.748 191.61 107.748 190.462C120.089 183.324 130.107 165.987 130.107 151.747C130.1 149.822 129.864 147.905 129.405 146.036L131.825 141.971Z" fill="black"/>
<path d="M115.552 143.241C103.199 150.379 93.1938 167.717 93.1938 181.957C93.1938 196.197 103.199 201.992 115.552 194.866C127.905 187.74 137.91 170.403 137.91 156.151C137.91 141.898 127.905 136.115 115.552 143.241Z" fill="#407BFF"/>
<path d="M106.817 185.369C106.587 185.369 106.466 185.236 106.466 185.03C106.49 184.802 106.556 184.581 106.66 184.377L107.785 181.848C107.86 181.6 108.007 181.381 108.209 181.219C108.376 181.143 108.557 181.102 108.741 181.098C109.748 181.038 110.741 180.838 111.693 180.505C112.958 180.079 114.175 179.519 115.322 178.835C117.108 177.868 118.673 176.542 119.92 174.94C120.855 173.728 121.377 172.248 121.408 170.717C121.408 168.043 119.775 167.656 116.508 169.507L113.326 171.431C112.806 171.721 112.443 171.83 112.225 171.734C112.007 171.637 111.899 171.346 111.899 170.862V169.858C111.881 169.431 111.995 169.009 112.225 168.648C112.517 168.255 112.893 167.932 113.326 167.705L116.484 165.878C117.749 165.189 118.822 164.195 119.605 162.986C120.262 161.972 120.622 160.795 120.646 159.587C120.646 156.997 118.823 156.756 115.177 158.861C112.935 160.138 110.917 161.773 109.201 163.7C109.039 163.882 108.861 164.048 108.668 164.196C108.597 164.23 108.517 164.239 108.44 164.221C108.363 164.204 108.294 164.161 108.245 164.099L107.168 162.889C107.108 162.834 107.06 162.766 107.027 162.692C106.993 162.617 106.976 162.536 106.974 162.454C106.999 162.176 107.119 161.916 107.313 161.716C108.385 160.375 109.602 159.158 110.943 158.086C112.504 156.814 114.167 155.673 115.915 154.675C117.494 153.692 119.235 153 121.057 152.63C121.631 152.49 122.228 152.477 122.806 152.592C123.385 152.707 123.932 152.947 124.409 153.295C124.838 153.71 125.17 154.215 125.379 154.774C125.588 155.332 125.67 155.931 125.618 156.526C125.591 157.858 125.295 159.17 124.747 160.385C124.163 161.787 123.344 163.08 122.328 164.208C122.85 164.033 123.408 163.994 123.95 164.093C124.491 164.192 124.999 164.428 125.425 164.777C125.798 165.211 126.08 165.714 126.257 166.259C126.434 166.803 126.5 167.377 126.453 167.947C126.361 170.629 125.42 173.213 123.767 175.327C121.738 178.049 119.147 180.302 116.169 181.933C111.911 184.425 108.793 185.57 106.817 185.369Z" fill="white"/>
<path d="M360.525 316.723L360.755 316.517C360.924 316.372 361.106 316.227 361.263 316.07L361.807 315.537L362.352 315.017C362.67 314.719 362.973 314.404 363.259 314.074L367.566 317.292L370.434 319.433C369.39 320.565 368.539 321.86 367.917 323.268C367.917 323.268 367.058 324.66 364.142 323.958C360.537 323.123 359.968 317.824 360.525 316.723Z" fill="#FFA8A7"/>
<path d="M318.337 315.247C315.046 311.424 317.974 305.072 321.168 296.833C324.676 287.771 330.096 272.37 330.096 272.37L368.582 264.421C368.582 264.421 409.584 263.634 413.347 271.474C416.396 277.753 389.392 287.202 385.52 287.541L361.819 288.787L359.327 289.997L342.679 311.061L318.337 315.247Z" fill="#407BFF"/>
<path d="M389.247 277.899C386.258 280.938 383.473 284.171 380.911 287.578C373.978 297.256 363.005 314.836 363.005 314.836C363.005 314.836 364.711 320.401 369.949 320.159C369.949 320.159 406.003 286.489 408.955 283.379C413.42 278.661 417.001 270.882 409.282 270.24C401.563 269.599 392.247 274.656 389.247 277.899Z" fill="#407BFF"/>
<path d="M380.718 287.771C380.718 287.771 387.154 278.359 393.82 274.463C393.82 274.463 387.19 275.769 377.148 287.989L380.718 287.771Z" fill="#407BFF"/>
<path opacity="0.1" d="M380.718 287.771C380.718 287.771 387.154 278.359 393.82 274.463C393.82 274.463 387.19 275.769 377.148 287.989L380.718 287.771Z" fill="black"/>
<path d="M385.096 299.676L382.567 300.16L384.915 308.835C384.915 308.835 387.189 308.617 387.975 308.665C389.121 308.394 390.224 307.966 391.254 307.395L390.649 302.096L387.867 299.192L385.096 299.676Z" fill="#FFA8A7"/>
<path d="M405.059 301.721C406.266 302.207 407.36 302.938 408.272 303.866C409.183 304.795 409.894 305.901 410.359 307.117C410.897 308.388 411.338 309.698 411.677 311.037C412.077 312.44 411.883 314.824 410.104 315.211C409.526 315.279 408.941 315.173 408.423 314.908C404.854 313.529 401.369 311.932 397.716 310.771C394.585 309.611 391.306 308.898 387.976 308.653C388.733 307.488 389.111 306.118 389.059 304.73C389.007 303.341 388.528 302.003 387.686 300.898C386.969 300.236 386.064 299.813 385.097 299.688C386.016 299.277 386.875 298.745 387.758 298.248C389.403 297.098 391.418 296.602 393.408 296.857C394.933 297.184 396.094 298.394 397.389 299.277C399.857 300.886 402.24 300.777 405.059 301.721Z" fill="#263238"/>
<path d="M323.527 306.935C326.709 305.955 331.79 305.084 346.865 304.31C361.94 303.536 382.568 300.148 382.568 300.148C386.077 303.524 384.915 308.823 384.915 308.823C384.915 308.823 358.141 317.292 349.418 318.417C335.529 320.208 330.738 320.074 324.471 318.731C317.429 317.219 312.989 310.166 323.527 306.935Z" fill="#407BFF"/>
<path d="M378.624 235.13L389.948 262.195L381.842 267.179L366.259 240.792L378.624 235.13Z" fill="#F28F8F"/>
<path d="M355.201 209.626C361.396 209.699 368.207 211.949 370.554 216.801L380.233 236.763C380.233 236.763 374.765 244.773 366.078 244.204L355.201 209.626Z" fill="#E0E0E0"/>
<path d="M314.017 251.693C314.09 250.641 315.602 245.499 317.223 239.958L328.983 244.023L325.825 253.98L315.917 263.38C313.771 259.886 313.088 255.687 314.017 251.693Z" fill="#FFA8A7"/>
<path d="M342.534 210.001C335.154 211.78 325.1 214.091 322.184 222.1C319.268 230.109 315.094 244.253 315.094 244.253C316.715 247.059 325.608 249.382 328.693 247.761L330.145 242.922V272.345C335.916 278.625 364.384 277.016 368.631 264.397V224.314C368.631 217.902 365.074 210.195 355.237 209.626L342.534 210.001Z" fill="#FAFAFA"/>
<path d="M330.108 242.946L333.811 231.295L330.108 248.16V242.946Z" fill="#E0E0E0"/>
<path d="M339.727 177.202C339.07 177.117 338.402 177.181 337.774 177.391C337.145 177.601 336.572 177.95 336.098 178.412C334.537 180.009 334.888 182.961 336.098 189.736L340.937 190.281L339.727 177.202Z" fill="#263238"/>
<path d="M367.808 175.242C368.844 175.247 369.87 175.037 370.821 174.625C372.297 173.778 372.684 175.46 371.873 176.912C371.337 177.959 370.542 178.851 369.564 179.503C368.585 180.155 367.456 180.546 366.284 180.638C366.284 180.432 364.904 176.875 364.904 176.875L367.808 175.242Z" fill="#263238"/>
<path d="M341.99 190.353C341.276 190.777 340.248 189.41 339.364 188.478C339.018 188.082 338.576 187.78 338.081 187.602C337.586 187.424 337.053 187.375 336.534 187.46C336.015 187.545 335.525 187.76 335.112 188.087C334.7 188.413 334.377 188.839 334.174 189.325C332.71 192.41 336.037 196.511 337.985 197.867C338.532 198.338 339.213 198.624 339.933 198.685C340.652 198.746 341.372 198.578 341.99 198.205L342.498 210.001C343.361 211.892 344.679 213.539 346.334 214.795C347.989 216.051 349.93 216.878 351.983 217.2C358.904 218.132 357.476 212.421 355.201 209.626V205.307C356.934 205.677 358.715 205.767 360.476 205.573C361.372 205.331 363.525 202.73 364.917 199.814C366.477 196.548 369.079 190.74 366.768 180.904C364.275 170.354 352.939 170.016 346.2 174.286C339.461 178.557 341.99 190.353 341.99 190.353Z" fill="#FFA8A7"/>
<path d="M341.99 191.551C341.627 191.551 340.26 189.289 339.365 188.478C338.155 187.353 339.728 177.202 339.728 177.202C339.728 177.202 338.518 173.343 340.937 170.79C343.357 168.237 348.1 168.66 351.56 168.539C355.8 168.563 359.999 167.719 363.901 166.059C368.813 163.93 369.176 163.64 369.781 165.829C370.385 168.019 370.627 172.919 367.7 176.222L366.103 178.823C366.103 178.823 364.614 180.033 360.053 180.638C355.492 181.243 347.676 178.739 346.745 178.606C345.414 178.424 345.136 179.707 344.422 183.215C343.744 186.3 343.2 191.527 341.99 191.551Z" fill="#263238"/>
<path d="M339.74 177.989L335.408 175.666C335.551 175.378 335.749 175.121 335.992 174.911C336.235 174.7 336.517 174.54 336.822 174.44C337.127 174.34 337.449 174.301 337.769 174.327C338.09 174.352 338.402 174.441 338.687 174.589C339.264 174.914 339.694 175.447 339.89 176.079C340.086 176.711 340.032 177.395 339.74 177.989Z" fill="#263238"/>
<path d="M355.189 205.307C355.189 205.307 348.777 204.013 346.539 202.887C345.221 202.197 344.142 201.126 343.441 199.814C343.782 201.13 344.382 202.364 345.208 203.444C346.841 205.537 355.189 207.073 355.189 207.073V205.307Z" fill="#F28F8F"/>
<path d="M355.395 190.111C355.386 190.363 355.302 190.606 355.156 190.81C355.009 191.015 354.806 191.171 354.571 191.261C354.336 191.351 354.08 191.369 353.834 191.315C353.589 191.26 353.365 191.134 353.19 190.953C353.015 190.772 352.898 190.543 352.852 190.296C352.807 190.048 352.835 189.793 352.933 189.562C353.031 189.33 353.196 189.133 353.405 188.994C353.615 188.855 353.861 188.781 354.113 188.78C354.284 188.784 354.454 188.821 354.611 188.889C354.768 188.958 354.91 189.057 355.03 189.18C355.149 189.304 355.242 189.45 355.305 189.609C355.368 189.769 355.398 189.94 355.395 190.111Z" fill="#263238"/>
<path d="M354.04 185.272L351.282 186.784C351.091 186.406 351.051 185.969 351.17 185.563C351.289 185.156 351.558 184.81 351.923 184.594C352.105 184.495 352.306 184.433 352.513 184.414C352.72 184.394 352.929 184.417 353.126 184.48C353.324 184.543 353.507 184.646 353.664 184.782C353.822 184.918 353.949 185.085 354.04 185.272Z" fill="#263238"/>
<path d="M354.633 198.701L357.573 199.814C357.508 200.011 357.404 200.192 357.268 200.347C357.131 200.503 356.965 200.629 356.779 200.719C356.593 200.81 356.391 200.862 356.184 200.872C355.978 200.883 355.771 200.853 355.577 200.782C355.181 200.625 354.861 200.32 354.685 199.932C354.509 199.544 354.49 199.103 354.633 198.701Z" fill="#F28F8F"/>
<path d="M366.852 186.337L364.348 184.401C364.466 184.233 364.618 184.09 364.793 183.982C364.968 183.874 365.163 183.803 365.367 183.773C365.57 183.742 365.778 183.753 365.977 183.805C366.176 183.857 366.363 183.948 366.525 184.074C366.86 184.337 367.08 184.719 367.141 185.14C367.202 185.561 367.098 185.99 366.852 186.337Z" fill="#263238"/>
<path d="M366.079 189.748C366.069 190 365.986 190.243 365.839 190.447C365.693 190.652 365.489 190.808 365.254 190.898C365.019 190.988 364.763 191.006 364.518 190.952C364.272 190.897 364.048 190.771 363.874 190.59C363.699 190.409 363.582 190.18 363.536 189.933C363.49 189.686 363.518 189.43 363.617 189.199C363.715 188.967 363.879 188.77 364.089 188.631C364.299 188.492 364.545 188.418 364.796 188.418C364.968 188.421 365.137 188.458 365.294 188.526C365.452 188.595 365.594 188.694 365.713 188.817C365.832 188.941 365.926 189.087 365.988 189.246C366.051 189.406 366.082 189.577 366.079 189.748Z" fill="#263238"/>
<path d="M360.028 189.591L358.818 197.237L363.053 196.741L360.028 189.591Z" fill="#F28F8F"/>
<path d="M404.164 276.423L378.092 261.372C377.863 261.241 377.605 261.173 377.342 261.173C377.079 261.173 376.82 261.241 376.592 261.372L330.871 287.771L357.682 303.306L404.164 276.423Z" fill="#37474F"/>
<path d="M357.439 301.043L343.381 292.937L384.492 269.2L398.623 277.27L357.439 301.043Z" fill="#263238"/>
<path d="M350.531 278.492L350.797 278.637L357.682 282.617L369.937 275.539L370.191 275.394L363.041 271.269L350.531 278.492Z" fill="#263238"/>
<path d="M350.797 278.637L357.681 282.617L369.937 275.539L363.041 271.559L350.797 278.637Z" fill="#263238"/>
<path d="M330.871 287.771V288.388C330.868 288.825 330.977 289.255 331.189 289.636C331.401 290.018 331.709 290.338 332.081 290.566L356.375 304.588C356.757 304.81 357.191 304.927 357.633 304.927C358.075 304.927 358.509 304.81 358.892 304.588L402.858 279.181C403.23 278.953 403.536 278.632 403.748 278.251C403.96 277.869 404.07 277.44 404.068 277.003V276.386L357.682 303.306L330.871 287.771Z" fill="#263238"/>
<path d="M357.682 303.306V304.975C358.108 304.971 358.525 304.854 358.892 304.637L402.858 279.23C403.229 279.001 403.536 278.681 403.748 278.299C403.96 277.918 404.07 277.488 404.068 277.052V276.435L357.682 303.306Z" fill="#263238"/>
<path d="M358.396 303.632C358.811 303.791 359.257 303.855 359.701 303.82C360.145 303.784 360.575 303.65 360.96 303.427L404.733 278.153C405.113 277.935 405.439 277.635 405.688 277.275C405.937 276.915 406.103 276.504 406.173 276.072L411.012 247.507C411.024 247.342 411.024 247.176 411.012 247.011C411.01 246.216 410.692 245.455 410.129 244.894L364.638 271.16C364.359 271.321 364.118 271.543 363.934 271.809C363.75 272.074 363.627 272.378 363.574 272.696L358.396 303.632Z" fill="#263238"/>
<path d="M357.682 303.306L357.984 303.475C358.117 303.551 358.255 303.62 358.395 303.681L363.574 272.745C363.627 272.426 363.75 272.123 363.934 271.857C364.118 271.592 364.358 271.37 364.638 271.208L410.129 244.942C409.943 244.769 409.741 244.615 409.524 244.482L363.949 270.748C363.668 270.91 363.426 271.132 363.24 271.397C363.053 271.663 362.928 271.966 362.872 272.285L357.682 303.306Z" fill="#455A64"/>
<path d="M383.04 277.245C383.729 274.857 385.31 272.825 387.456 271.571C389.573 270.361 391.025 270.906 390.71 272.781C390.022 275.169 388.44 277.201 386.294 278.455C384.177 279.726 382.725 279.109 383.04 277.245Z" fill="#37474F"/>
<path d="M325.826 253.956C325.826 253.956 333.678 284.202 336.993 286.368C340.308 288.533 346.478 290.118 349.43 291.207C352.382 292.296 353.725 293.784 353.217 294.196C352.709 294.607 348.45 295.055 346.974 295.575C345.498 296.095 347.41 298.478 350.676 301.007C353.943 303.536 356.726 303.306 356.363 304.988C356 306.669 348.716 308.351 342.57 304.746C336.424 301.14 334.561 296.277 330.895 292.151C327.229 288.025 318.857 270.882 315.917 263.38C315.917 263.38 316.195 249.443 320.756 250.326C325.318 251.209 325.826 253.956 325.826 253.956Z" fill="#FFA8A7"/>
<path d="M363.187 315.247C363.743 316.59 365.667 320.292 369.95 320.087L380.475 310.238L363.187 315.247Z" fill="#407BFF"/>
<path opacity="0.1" d="M363.187 315.247C363.743 316.59 365.667 320.292 369.95 320.087L380.475 310.238L363.187 315.247Z" fill="black"/>
<path d="M366.368 332.572C366.267 329.404 366.789 326.247 367.905 323.281C367.398 323.634 366.813 323.861 366.2 323.941C365.588 324.021 364.964 323.952 364.384 323.74C360.863 322.688 359.98 317.776 360.536 316.711C360.028 317.159 359.496 317.582 358.976 318.018C357.307 319.138 356.12 320.843 355.649 322.797C355.407 324.333 356.12 325.846 356.471 327.37C357.149 330.274 356.471 333.298 356.362 336.274C356.387 337.573 356.678 338.853 357.217 340.035C357.756 341.217 358.531 342.276 359.496 343.146C360.488 344.114 361.556 345 362.69 345.796C363.103 346.26 363.649 346.584 364.254 346.725C364.859 346.865 365.492 346.814 366.067 346.579C366.642 346.344 367.13 345.937 367.463 345.413C367.797 344.889 367.959 344.275 367.929 343.655C367.469 339.88 366.586 336.504 366.368 332.572Z" fill="#263238"/>
<path d="M370.361 319.457C370.035 320.074 369.744 320.667 369.49 321.26C369.793 320.679 370.083 320.074 370.361 319.457Z" fill="#37474F"/>
</svg>
