<svg width="28" height="21" viewBox="0 0 28 21" fill="none" xmlns="http://www.w3.org/2000/svg">
<path d="M22.652 6.75994C22.5904 6.08286 22.3165 5.55658 21.8303 5.18111C21.3501 4.79948 20.6638 4.60866 19.7713 4.60866C19.1804 4.60866 18.688 4.68561 18.294 4.83949C17.9001 4.99337 17.6046 5.20573 17.4077 5.47656C17.2107 5.74124 17.1091 6.04593 17.103 6.39062C17.0907 6.67377 17.1461 6.92306 17.2692 7.13849C17.3984 7.35393 17.5831 7.54474 17.8232 7.71094C18.0694 7.87098 18.3648 8.01255 18.7095 8.13565C19.0542 8.25876 19.442 8.36648 19.8729 8.45881L21.4979 8.82812C22.4335 9.03125 23.2583 9.30208 23.9723 9.64062C24.6925 9.97917 25.2957 10.3823 25.782 10.8501C26.2744 11.3179 26.6468 11.8565 26.8991 12.4659C27.1515 13.0753 27.2808 13.7585 27.2869 14.5156C27.2808 15.7098 26.9792 16.7346 26.3821 17.5902C25.785 18.4458 24.9264 19.1013 23.8061 19.5568C22.692 20.0123 21.3471 20.2401 19.7713 20.2401C18.1894 20.2401 16.8106 20.0031 15.6349 19.5291C14.4593 19.0552 13.5452 18.335 12.8928 17.3686C12.2403 16.4022 11.9048 15.1804 11.8864 13.7031H16.2628C16.2997 14.3125 16.4628 14.8203 16.7521 15.2266C17.0414 15.6328 17.4384 15.9406 17.9432 16.1499C18.4541 16.3591 19.045 16.4638 19.7159 16.4638C20.3314 16.4638 20.8546 16.3807 21.2855 16.2145C21.7225 16.0483 22.058 15.8175 22.2919 15.522C22.5258 15.2266 22.6458 14.888 22.652 14.5064C22.6458 14.1494 22.535 13.8447 22.3196 13.5923C22.1042 13.3338 21.7718 13.1122 21.3224 12.9276C20.8793 12.7367 20.313 12.5613 19.6236 12.4013L17.6477 11.9396C16.0104 11.5642 14.7209 10.9579 13.7791 10.1207C12.8374 9.27746 12.3696 8.13873 12.3757 6.70455C12.3696 5.53504 12.6835 4.51018 13.3175 3.62997C13.9515 2.74976 14.8286 2.06345 15.9489 1.57102C17.0691 1.0786 18.3464 0.832386 19.7805 0.832386C21.2455 0.832386 22.5166 1.08168 23.5938 1.58025C24.6771 2.07268 25.5173 2.76515 26.1143 3.65767C26.7114 4.55019 27.0161 5.58428 27.0284 6.75994H22.652Z" fill="#3A6CF4"/>
<path d="M0.431108 20V1.09091H5.00142V9.08665H5.25071L11.5014 1.09091H16.8842L10.1811 9.52983L17.0043 20H11.5384L6.82955 12.5675L5.00142 14.8757V20H0.431108Z" fill="#001352"/>
</svg>
