<svg id="visual" viewBox="0 0 900 600" width="900" height="600" xmlns="http://www.w3.org/2000/svg" xmlns:xlink="http://www.w3.org/1999/xlink" version="1.1"><rect x="0" y="0" width="900" height="600" fill="#ffffff"></rect><path d="M0 275L60 275L60 259L120 259L120 302L180 302L180 261L240 261L240 318L300 318L300 325L360 325L360 308L420 308L420 323L480 323L480 251L540 251L540 264L600 264L600 268L660 268L660 285L720 285L720 249L780 249L780 250L840 250L840 225L900 225L900 324L900 601L900 601L840 601L840 601L780 601L780 601L720 601L720 601L660 601L660 601L600 601L600 601L540 601L540 601L480 601L480 601L420 601L420 601L360 601L360 601L300 601L300 601L240 601L240 601L180 601L180 601L120 601L120 601L60 601L60 601L0 601Z" fill="#3a6cf4"></path><path d="M0 442L60 442L60 379L120 379L120 412L180 412L180 392L240 392L240 436L300 436L300 421L360 421L360 447L420 447L420 427L480 427L480 458L540 458L540 376L600 376L600 459L660 459L660 387L720 387L720 377L780 377L780 445L840 445L840 405L900 405L900 384L900 601L900 601L840 601L840 601L780 601L780 601L720 601L720 601L660 601L660 601L600 601L600 601L540 601L540 601L480 601L480 601L420 601L420 601L360 601L360 601L300 601L300 601L240 601L240 601L180 601L180 601L120 601L120 601L60 601L60 601L0 601Z" fill="#001352"></path></svg>